<svg width="176" height="228" viewBox="0 0 176 228" fill="none" xmlns="http://www.w3.org/2000/svg">
<g id="csslogo" clip-path="url(#clip0_4:58)">
<g id="csshield">
<path id="shieldbg" d="M89.8477 55H172V194.202L89.8311 222.713L5.89844 194.178V55H89.8477Z" fill="#FF857A" stroke="#FA6A5D" stroke-width="10" stroke-linejoin="round"/>
<path id="shieldleft" d="M84.3477 220.346L5.5 193.807V55.9886L84.3477 62.7072V220.346Z" fill="#FA6A5D" stroke="#FA6A5D" stroke-width="11" stroke-linejoin="round"/>
<path id="v3" d="M49.0955 106.391C49.8889 95.9642 53.9122 87.8042 61.1655 81.9108C68.4189 76.0175 77.8255 73.0708 89.3855 73.0708C97.0922 73.0708 103.722 74.4875 109.276 77.3208C114.942 80.0408 119.192 83.7808 122.026 88.5408C124.972 93.3008 126.446 98.6842 126.446 104.691C126.446 111.718 124.406 117.781 120.326 122.881C116.359 127.981 111.146 131.268 104.686 132.741V133.591C112.052 135.404 117.889 138.974 122.196 144.301C126.502 149.628 128.656 156.598 128.656 165.211C128.656 171.671 127.182 177.508 124.236 182.721C121.289 187.821 116.869 191.844 110.976 194.791C105.082 197.738 97.9989 199.211 89.7255 199.211C77.7122 199.211 67.8522 196.094 60.1455 189.861C52.4389 183.514 48.1322 174.561 47.2255 163.001H62.1855C62.9789 169.801 65.7555 175.354 70.5155 179.661C75.2755 183.968 81.6222 186.121 89.5555 186.121C97.4889 186.121 103.496 184.081 107.576 180.001C111.769 175.808 113.866 170.424 113.866 163.851C113.866 155.351 111.032 149.231 105.366 145.491C99.6989 141.751 91.1422 139.881 79.6955 139.881H75.7855V126.961H79.8655C90.2922 126.848 98.1689 125.148 103.496 121.861C108.822 118.461 111.486 113.248 111.486 106.221C111.486 100.214 109.502 95.3975 105.536 91.7708C101.682 88.1442 96.1289 86.3308 88.8755 86.3308C81.8489 86.3308 76.1822 88.1442 71.8755 91.7708C67.5689 95.3975 65.0189 100.271 64.2255 106.391H49.0955Z" fill="white"/>
</g>
<path id="csstext" d="M30.5516 23.758C30.5516 19.814 31.441 16.276 33.2196 13.144C34.9983 9.97333 37.415 7.49867 40.4696 5.72C43.563 3.94133 46.985 3.052 50.7356 3.052C55.1436 3.052 58.991 4.11533 62.2776 6.242C65.5643 8.36867 67.9616 11.3847 69.4696 15.29H63.1476C62.0263 12.854 60.4023 10.9787 58.2756 9.664C56.1876 8.34933 53.6743 7.692 50.7356 7.692C47.913 7.692 45.3803 8.34933 43.1376 9.664C40.895 10.9787 39.1356 12.854 37.8596 15.29C36.5836 17.6873 35.9456 20.51 35.9456 23.758C35.9456 26.9673 36.5836 29.79 37.8596 32.226C39.1356 34.6233 40.895 36.4793 43.1376 37.794C45.3803 39.1087 47.913 39.766 50.7356 39.766C53.6743 39.766 56.1876 39.128 58.2756 37.852C60.4023 36.5373 62.0263 34.662 63.1476 32.226H69.4696C67.9616 36.0927 65.5643 39.0893 62.2776 41.216C58.991 43.304 55.1436 44.348 50.7356 44.348C46.985 44.348 43.563 43.478 40.4696 41.738C37.415 39.9593 34.9983 37.504 33.2196 34.372C31.441 31.24 30.5516 27.702 30.5516 23.758ZM90.1444 44.406C87.4764 44.406 85.079 43.942 82.9524 43.014C80.8644 42.0473 79.221 40.7327 78.0224 39.07C76.8237 37.3687 76.205 35.416 76.1664 33.212H81.7924C81.9857 35.1067 82.759 36.7113 84.1124 38.026C85.5044 39.302 87.515 39.94 90.1444 39.94C92.6577 39.94 94.6297 39.3213 96.0604 38.084C97.5297 36.808 98.2644 35.184 98.2644 33.212C98.2644 31.6653 97.839 30.4087 96.9884 29.442C96.1377 28.4753 95.0744 27.7407 93.7984 27.238C92.5224 26.7353 90.8017 26.194 88.6364 25.614C85.9684 24.918 83.8224 24.222 82.1984 23.526C80.613 22.83 79.2404 21.7473 78.0804 20.278C76.959 18.77 76.3984 16.7593 76.3984 14.246C76.3984 12.042 76.959 10.0893 78.0804 8.388C79.2017 6.68666 80.7677 5.372 82.7784 4.444C84.8277 3.516 87.167 3.052 89.7964 3.052C93.5857 3.052 96.679 3.99933 99.0764 5.894C101.512 7.78867 102.885 10.302 103.194 13.434H97.3944C97.201 11.8873 96.389 10.534 94.9584 9.374C93.5277 8.17533 91.633 7.576 89.2744 7.576C87.0704 7.576 85.2724 8.156 83.8804 9.316C82.4884 10.4373 81.7924 12.0227 81.7924 14.072C81.7924 15.5413 82.1984 16.74 83.0104 17.668C83.861 18.596 84.8857 19.3113 86.0844 19.814C87.3217 20.278 89.0424 20.8193 91.2464 21.438C93.9144 22.1727 96.0604 22.9073 97.6844 23.642C99.3084 24.338 100.7 25.44 101.86 26.948C103.02 28.4173 103.6 30.428 103.6 32.98C103.6 34.952 103.078 36.808 102.034 38.548C100.99 40.288 99.4437 41.6993 97.3944 42.782C95.345 43.8647 92.9284 44.406 90.1444 44.406ZM124.185 44.406C121.517 44.406 119.12 43.942 116.993 43.014C114.905 42.0473 113.262 40.7327 112.063 39.07C110.865 37.3687 110.246 35.416 110.207 33.212H115.833C116.027 35.1067 116.8 36.7113 118.153 38.026C119.545 39.302 121.556 39.94 124.185 39.94C126.699 39.94 128.671 39.3213 130.101 38.084C131.571 36.808 132.305 35.184 132.305 33.212C132.305 31.6653 131.88 30.4087 131.029 29.442C130.179 28.4753 129.115 27.7407 127.839 27.238C126.563 26.7353 124.843 26.194 122.677 25.614C120.009 24.918 117.863 24.222 116.239 23.526C114.654 22.83 113.281 21.7473 112.121 20.278C111 18.77 110.439 16.7593 110.439 14.246C110.439 12.042 111 10.0893 112.121 8.388C113.243 6.68666 114.809 5.372 116.819 4.444C118.869 3.516 121.208 3.052 123.837 3.052C127.627 3.052 130.72 3.99933 133.117 5.894C135.553 7.78867 136.926 10.302 137.235 13.434H131.435C131.242 11.8873 130.43 10.534 128.999 9.374C127.569 8.17533 125.674 7.576 123.315 7.576C121.111 7.576 119.313 8.156 117.921 9.316C116.529 10.4373 115.833 12.0227 115.833 14.072C115.833 15.5413 116.239 16.74 117.051 17.668C117.902 18.596 118.927 19.3113 120.125 19.814C121.363 20.278 123.083 20.8193 125.287 21.438C127.955 22.1727 130.101 22.9073 131.725 23.642C133.349 24.338 134.741 25.44 135.901 26.948C137.061 28.4173 137.641 30.428 137.641 32.98C137.641 34.952 137.119 36.808 136.075 38.548C135.031 40.288 133.485 41.6993 131.435 42.782C129.386 43.8647 126.969 44.406 124.185 44.406Z" fill="#FF857A"/>
</g>
<defs>
<clipPath id="clip0_4:58">
<rect width="176" height="228" fill="white"/>
</clipPath>
</defs>
</svg>
