<svg width="177" height="228" viewBox="0 0 177 228" fill="none" xmlns="http://www.w3.org/2000/svg">
<g id="java" clip-path="url(#clip0_0:1)">
<g id="jsshield">
<path id="shieldbg" d="M89.8477 55H172V194.202L89.8311 222.713L5.89844 194.178V55H89.8477Z" fill="#FF857A" stroke="#FA6A5D" stroke-width="10" stroke-linejoin="round"/>
<path id="shieldleft" d="M84.3477 62.7072V220.346L5.5 193.807V55.9886L84.3477 62.7072Z" fill="#FA6A5D" stroke="#FA6A5D" stroke-width="11" stroke-linejoin="round"/>
</g>
<path id="v6" d="M23.8321 90.2V76.09H55.7921V199H40.1521V90.2H23.8321ZM158.015 88.16L110.755 199H95.1152L143.055 89.69H77.4352V76.43H158.015V88.16Z" fill="white"/>
<path id="jstext" d="M40.2664 3.574V33.444C40.2664 36.7693 39.2417 39.4373 37.1924 41.448C35.1431 43.42 32.4364 44.406 29.0724 44.406C25.6697 44.406 22.9437 43.4007 20.8944 41.39C18.845 39.3407 17.8204 36.5567 17.8204 33.038H23.0984C23.137 35.01 23.6397 36.6147 24.6064 37.852C25.6117 39.0893 27.1004 39.708 29.0724 39.708C31.0444 39.708 32.5137 39.128 33.4804 37.968C34.4471 36.7693 34.9304 35.2613 34.9304 33.444V3.574H40.2664ZM74.5602 35.01H56.9282L53.6802 44H48.1122L62.7282 3.806H68.8182L83.3762 44H77.8082L74.5602 35.01ZM73.0522 30.718L65.7442 10.302L58.4362 30.718H73.0522ZM123.154 3.574L107.9 44H101.81L86.5563 3.574H92.1823L104.884 38.432L117.586 3.574H123.154ZM152.838 35.01H135.206L131.958 44H126.39L141.006 3.806H147.096L161.654 44H156.086L152.838 35.01ZM151.33 30.718L144.022 10.302L136.714 30.718H151.33Z" fill="#FF857A"/>
</g>
<defs>
<clipPath id="clip0_0:1">
<rect width="177" height="228" fill="white"/>
</clipPath>
</defs>
</svg>
