<svg width="177" height="228" viewBox="0 0 177 228" fill="none" xmlns="http://www.w3.org/2000/svg">
<g id="jslogo" clip-path="url(#clip0_0:1)">
<g id="jsshield">
<path id="shieldbg" d="M89.8477 55H172V194.202L89.8311 222.713L5.89844 194.178V55H89.8477Z" fill="#FF857A" stroke="#FA6A5D" stroke-width="10" stroke-linejoin="round"/>
<path id="shieldleft" d="M84.3477 220.346L5.5 193.807V55.9886L84.3477 62.7072V220.346Z" fill="#FA6A5D" stroke="#FA6A5D" stroke-width="11" stroke-linejoin="round"/>
<path id="v6" d="M114.044 104.691C111.551 92.1108 103.788 85.8208 90.7542 85.8208C80.6675 85.8208 73.1308 89.7308 68.1442 97.5508C63.1575 105.257 60.7208 118.008 60.8342 135.801C63.4408 129.908 67.7475 125.318 73.7542 122.031C79.8742 118.631 86.6742 116.931 94.1542 116.931C105.828 116.931 115.121 120.558 122.034 127.811C129.061 135.064 132.574 145.094 132.574 157.901C132.574 165.608 131.044 172.521 127.984 178.641C125.038 184.761 120.504 189.634 114.384 193.261C108.378 196.888 101.068 198.701 92.4542 198.701C80.7808 198.701 71.6575 196.094 65.0842 190.881C58.5108 185.668 53.9208 178.471 51.3142 169.291C48.7075 160.111 47.4042 148.778 47.4042 135.291C47.4042 93.6975 61.9108 72.9008 90.9242 72.9008C102.031 72.9008 110.758 75.9042 117.104 81.9108C123.451 87.9175 127.191 95.5108 128.324 104.691H114.044ZM90.9242 130.021C86.0508 130.021 81.4608 131.041 77.1542 133.081C72.8475 135.008 69.3342 138.011 66.6142 142.091C64.0075 146.058 62.7042 150.931 62.7042 156.711C62.7042 165.324 65.1975 172.351 70.1842 177.791C75.1708 183.118 82.3108 185.781 91.6042 185.781C99.5375 185.781 105.828 183.344 110.474 178.471C115.234 173.484 117.614 166.798 117.614 158.411C117.614 149.571 115.348 142.658 110.814 137.671C106.281 132.571 99.6508 130.021 90.9242 130.021Z" fill="white"/>
</g>
<path id="jstext" d="M81.9256 3.574V33.444C81.9256 36.7693 80.9009 39.4373 78.8516 41.448C76.8022 43.42 74.0956 44.406 70.7316 44.406C67.3289 44.406 64.6029 43.4007 62.5536 41.39C60.5042 39.3407 59.4796 36.5567 59.4796 33.038H64.7576C64.7962 35.01 65.2989 36.6147 66.2656 37.852C67.2709 39.0893 68.7596 39.708 70.7316 39.708C72.7036 39.708 74.1729 39.128 75.1396 37.968C76.1062 36.7693 76.5896 35.2613 76.5896 33.444V3.574L81.9256 3.574ZM105.141 44.406C102.473 44.406 100.076 43.942 97.9494 43.014C95.8614 42.0473 94.2181 40.7327 93.0194 39.07C91.8208 37.3687 91.2021 35.416 91.1634 33.212H96.7894C96.9828 35.1067 97.7561 36.7113 99.1094 38.026C100.501 39.302 102.512 39.94 105.141 39.94C107.655 39.94 109.627 39.3213 111.057 38.084C112.527 36.808 113.261 35.184 113.261 33.212C113.261 31.6653 112.836 30.4087 111.985 29.442C111.135 28.4753 110.071 27.7407 108.795 27.238C107.519 26.7353 105.799 26.194 103.633 25.614C100.965 24.918 98.8194 24.222 97.1954 23.526C95.6101 22.83 94.2374 21.7473 93.0774 20.278C91.9561 18.77 91.3954 16.7593 91.3954 14.246C91.3954 12.042 91.9561 10.0893 93.0774 8.388C94.1988 6.68666 95.7648 5.372 97.7754 4.444C99.8248 3.516 102.164 3.052 104.793 3.052C108.583 3.052 111.676 3.99933 114.073 5.894C116.509 7.78867 117.882 10.302 118.191 13.434H112.391C112.198 11.8873 111.386 10.534 109.955 9.374C108.525 8.17533 106.63 7.576 104.271 7.576C102.067 7.576 100.269 8.156 98.8774 9.316C97.4854 10.4373 96.7894 12.0227 96.7894 14.072C96.7894 15.5413 97.1954 16.74 98.0074 17.668C98.8581 18.596 99.8828 19.3113 101.081 19.814C102.319 20.278 104.039 20.8193 106.243 21.438C108.911 22.1727 111.057 22.9073 112.681 23.642C114.305 24.338 115.697 25.44 116.857 26.948C118.017 28.4173 118.597 30.428 118.597 32.98C118.597 34.952 118.075 36.808 117.031 38.548C115.987 40.288 114.441 41.6993 112.391 42.782C110.342 43.8647 107.925 44.406 105.141 44.406Z" fill="#FF857A"/>
</g>
<defs>
<clipPath id="clip0_0:1">
<rect width="177" height="228" fill="white"/>
</clipPath>
</defs>
</svg>
