<svg width="177" height="228" viewBox="0 0 177 228" fill="none" xmlns="http://www.w3.org/2000/svg">
<g id="react" clip-path="url(#clip0_0:1)">
<g id="jsshield">
<path id="shieldbg" d="M89.8477 55H172V194.202L89.8311 222.713L5.89844 194.178V55H89.8477Z" fill="#FF857A" stroke="#FA6A5D" stroke-width="10" stroke-linejoin="round"/>
<path id="shieldleft" d="M84.3477 62.7072V220.346L5.5 193.807V55.9886L84.3477 62.7072Z" fill="#FA6A5D" stroke="#FA6A5D" stroke-width="11" stroke-linejoin="round"/>
</g>
<path id="v6" d="M23.8321 90.2V76.09H55.7921V199H40.1521V90.2H23.8321ZM158.015 88.16L110.755 199H95.1152L143.055 89.69H77.4352V76.43H158.015V88.16Z" fill="white"/>
<path id="jstext" d="M32.8487 44L23.2207 27.47H16.8407V44H11.5627V3.574H24.6127C27.6673 3.574 30.2387 4.096 32.3267 5.14C34.4533 6.184 36.0387 7.59533 37.0827 9.374C38.1267 11.1527 38.6487 13.1827 38.6487 15.464C38.6487 18.248 37.8367 20.7033 36.2127 22.83C34.6273 24.9567 32.23 26.368 29.0207 27.064L39.1707 44H32.8487ZM16.8407 23.236H24.6127C27.474 23.236 29.62 22.54 31.0507 21.148C32.4813 19.7173 33.1967 17.8227 33.1967 15.464C33.1967 13.0667 32.4813 11.2107 31.0507 9.896C29.6587 8.58133 27.5127 7.924 24.6127 7.924H16.8407V23.236ZM75.8498 26.89C75.8498 27.8953 75.7918 28.9587 75.6758 30.08H50.2718C50.4651 33.212 51.5285 35.6673 53.4618 37.446C55.4338 39.186 57.8118 40.056 60.5958 40.056C62.8771 40.056 64.7718 39.534 66.2798 38.49C67.8265 37.4073 68.9091 35.9767 69.5278 34.198H75.2118C74.3611 37.2527 72.6598 39.7467 70.1078 41.68C67.5558 43.5747 64.3851 44.522 60.5958 44.522C57.5798 44.522 54.8731 43.8453 52.4758 42.492C50.1171 41.1387 48.2611 39.2247 46.9078 36.75C45.5545 34.2367 44.8778 31.3367 44.8778 28.05C44.8778 24.7633 45.5351 21.8827 46.8498 19.408C48.1645 16.9333 50.0011 15.0387 52.3598 13.724C54.7571 12.3707 57.5025 11.694 60.5958 11.694C63.6118 11.694 66.2798 12.3513 68.5998 13.666C70.9198 14.9807 72.6985 16.798 73.9358 19.118C75.2118 21.3993 75.8498 23.99 75.8498 26.89ZM70.3978 25.788C70.3978 23.7773 69.9531 22.0567 69.0638 20.626C68.1745 19.1567 66.9565 18.0547 65.4098 17.32C63.9018 16.5467 62.2198 16.16 60.3638 16.16C57.6958 16.16 55.4145 17.0107 53.5198 18.712C51.6638 20.4133 50.6005 22.772 50.3298 25.788H70.3978ZM80.8446 27.992C80.8446 24.744 81.5019 21.902 82.8166 19.466C84.1313 16.9913 85.9293 15.0773 88.2106 13.724C90.5306 12.3707 93.1019 11.694 95.9246 11.694C98.7086 11.694 101.125 12.2933 103.175 13.492C105.224 14.6907 106.751 16.1987 107.757 18.016V12.216H113.093V44H107.757V38.084C106.713 39.94 105.147 41.4867 103.059 42.724C101.009 43.9227 98.6119 44.522 95.8666 44.522C93.0439 44.522 90.4919 43.826 88.2106 42.434C85.9293 41.042 84.1313 39.0893 82.8166 36.576C81.5019 34.0627 80.8446 31.2013 80.8446 27.992ZM107.757 28.05C107.757 25.6527 107.273 23.5647 106.307 21.786C105.34 20.0073 104.025 18.654 102.363 17.726C100.739 16.7593 98.9406 16.276 96.9686 16.276C94.9966 16.276 93.1986 16.74 91.5746 17.668C89.9506 18.596 88.6553 19.9493 87.6886 21.728C86.7219 23.5067 86.2386 25.5947 86.2386 27.992C86.2386 30.428 86.7219 32.5547 87.6886 34.372C88.6553 36.1507 89.9506 37.5233 91.5746 38.49C93.1986 39.418 94.9966 39.882 96.9686 39.882C98.9406 39.882 100.739 39.418 102.363 38.49C104.025 37.5233 105.34 36.1507 106.307 34.372C107.273 32.5547 107.757 30.4473 107.757 28.05ZM120.04 28.05C120.04 24.7633 120.697 21.902 122.012 19.466C123.327 16.9913 125.144 15.0773 127.464 13.724C129.823 12.3707 132.51 11.694 135.526 11.694C139.431 11.694 142.641 12.6413 145.154 14.536C147.706 16.4307 149.388 19.06 150.2 22.424H144.516C143.975 20.4907 142.911 18.9633 141.326 17.842C139.779 16.7207 137.846 16.16 135.526 16.16C132.51 16.16 130.074 17.204 128.218 19.292C126.362 21.3413 125.434 24.2607 125.434 28.05C125.434 31.878 126.362 34.836 128.218 36.924C130.074 39.012 132.51 40.056 135.526 40.056C137.846 40.056 139.779 39.5147 141.326 38.432C142.873 37.3493 143.936 35.8027 144.516 33.792H150.2C149.349 37.04 147.648 39.65 145.096 41.622C142.544 43.5553 139.354 44.522 135.526 44.522C132.51 44.522 129.823 43.8453 127.464 42.492C125.144 41.1387 123.327 39.2247 122.012 36.75C120.697 34.2753 120.04 31.3753 120.04 28.05ZM163.68 16.566V35.3C163.68 36.8467 164.009 37.9487 164.666 38.606C165.324 39.2247 166.464 39.534 168.088 39.534H171.974V44H167.218C164.28 44 162.076 43.3233 160.606 41.97C159.137 40.6167 158.402 38.3933 158.402 35.3V16.566H154.284V12.216H158.402V4.212H163.68V12.216H171.974V16.566H163.68Z" fill="#FF857A"/>
</g>
<defs>
<clipPath id="clip0_0:1">
<rect width="177" height="228" fill="white"/>
</clipPath>
</defs>
</svg>
