<svg width="176" height="228" viewBox="0 0 176 228" fill="none" xmlns="http://www.w3.org/2000/svg">
<g id="htmllogo" clip-path="url(#clip0_5:9)">
<g id="htmlshield">
<path id="shieldbg" d="M89.8477 55H172V194.202L89.8311 222.713L5.89844 194.178V55H89.8477Z" fill="#FF857A" stroke="#FA6A5D" stroke-width="10" stroke-linejoin="round"/>
<path id="shieldleft" d="M84.3477 220.346L5.5 193.807V55.9886L84.3477 62.7072V220.346Z" fill="#FA6A5D" stroke="#FA6A5D" stroke-width="11" stroke-linejoin="round"/>
<path id="v5" d="M124.485 88.8808H64.8152V127.641C67.4219 124.014 71.2752 121.068 76.3752 118.801C81.4752 116.421 86.9719 115.231 92.8652 115.231C102.272 115.231 109.922 117.214 115.815 121.181C121.709 125.034 125.902 130.078 128.395 136.311C131.002 142.431 132.305 148.948 132.305 155.861C132.305 164.021 130.775 171.331 127.715 177.791C124.655 184.251 119.952 189.351 113.605 193.091C107.372 196.831 99.6086 198.701 90.3152 198.701C78.4152 198.701 68.7819 195.641 61.4152 189.521C54.0486 183.401 49.5719 175.241 47.9852 165.041H63.1152C64.5886 171.501 67.7052 176.544 72.4652 180.171C77.2252 183.798 83.2319 185.611 90.4852 185.611C99.4386 185.611 106.182 182.948 110.715 177.621C115.249 172.181 117.515 165.041 117.515 156.201C117.515 147.361 115.249 140.561 110.715 135.801C106.182 130.928 99.4952 128.491 90.6552 128.491C84.6486 128.491 79.3786 129.964 74.8452 132.911C70.4252 135.744 67.1952 139.654 65.1552 144.641H50.5352V75.2808H124.485V88.8808Z" fill="white"/>
</g>
<path id="htmltext" d="M51.8474 3.574V44H46.5694V25.672H25.9794V44H20.7014V3.574H25.9794V21.322H46.5694V3.574H51.8474ZM85.7416 3.574V7.866H74.7216V44H69.4436V7.866H58.3656V3.574L85.7416 3.574ZM133.244 3.864V44H127.966V14.072L114.626 44H110.914L97.5165 14.014V44H92.2385V3.864H97.9225L112.77 37.04L127.618 3.864H133.244ZM147.473 39.708H161.625V44H142.195V3.574H147.473V39.708Z" fill="#FF857A"/>
</g>
<defs>
<clipPath id="clip0_5:9">
<rect width="176" height="228" fill="white"/>
</clipPath>
</defs>
</svg>
