<svg width="177" height="241" viewBox="0 0 177 241" fill="none" xmlns="http://www.w3.org/2000/svg">
<g id="mysql2" clip-path="url(#clip0_50:42)">
<g id="htmlshield">
<path id="shieldbg" d="M89.8477 68H172V207.202L89.8311 235.713L5.8985 207.178V68H89.8477Z" fill="#FF857A" stroke="#FA6A5D" stroke-width="10" stroke-linejoin="round"/>
<path id="shieldleft" d="M84.3477 75.7072V233.346L5.5 206.807V68.9886L84.3477 75.7072Z" fill="#FA6A5D" stroke="#FA6A5D" stroke-width="11" stroke-linejoin="round"/>
<path id="v5" d="M68.3062 147.441C61.9595 144.948 57.0862 141.321 53.6862 136.561C50.2862 131.801 48.5862 126.021 48.5862 119.221C48.5862 113.101 50.1162 107.604 53.1762 102.731C56.2362 97.7442 60.7695 93.8342 66.7762 91.0008C72.8962 88.0542 80.2629 86.5808 88.8762 86.5808C97.4895 86.5808 104.8 88.0542 110.806 91.0008C116.926 93.8342 121.516 97.7442 124.576 102.731C127.75 107.604 129.336 113.101 129.336 119.221C129.336 125.794 127.58 131.574 124.066 136.561C120.553 141.434 115.736 145.061 109.616 147.441C116.643 149.594 122.196 153.391 126.276 158.831C130.47 164.158 132.566 170.618 132.566 178.211C132.566 185.578 130.753 192.038 127.126 197.591C123.5 203.031 118.343 207.281 111.656 210.341C105.083 213.288 97.4895 214.761 88.8762 214.761C80.2629 214.761 72.6695 213.288 66.0962 210.341C59.6362 207.281 54.5929 203.031 50.9662 197.591C47.3395 192.038 45.5262 185.578 45.5262 178.211C45.5262 170.618 47.5662 164.101 51.6462 158.661C55.7262 153.221 61.2795 149.481 68.3062 147.441ZM114.376 121.091C114.376 114.178 112.11 108.851 107.576 105.111C103.043 101.371 96.8095 99.5008 88.8762 99.5008C81.0562 99.5008 74.8795 101.371 70.3462 105.111C65.8129 108.851 63.5462 114.234 63.5462 121.261C63.5462 127.608 65.8695 132.708 70.5162 136.561C75.2762 140.414 81.3962 142.341 88.8762 142.341C96.4695 142.341 102.59 140.414 107.236 136.561C111.996 132.594 114.376 127.438 114.376 121.091ZM88.8762 154.241C80.4895 154.241 73.6329 156.224 68.3062 160.191C62.9795 164.044 60.3162 169.881 60.3162 177.701C60.3162 184.954 62.8662 190.791 67.9662 195.211C73.1795 199.631 80.1495 201.841 88.8762 201.841C97.6029 201.841 104.516 199.631 109.616 195.211C114.716 190.791 117.266 184.954 117.266 177.701C117.266 170.108 114.66 164.328 109.446 160.361C104.233 156.281 97.3762 154.241 88.8762 154.241Z" fill="white"/>
</g>
<path id="spring" d="M50.3118 13.324V50H45.4888V22.652L33.2988 50H29.9068L17.6638 22.599V50H12.8408V13.324H18.0348L31.6028 43.64L45.1708 13.324H50.3118ZM83.5072 20.956L66.0172 63.674H61.0352L66.7592 49.682L55.0462 20.956H60.3992L69.5152 44.488L78.5252 20.956H83.5072ZM100.068 50.371C97.6304 50.371 95.4397 49.947 93.4964 49.099C91.5884 48.2157 90.0867 47.0143 88.9914 45.495C87.8961 43.9403 87.3307 42.156 87.2954 40.142H92.4364C92.6131 41.8733 93.3197 43.3397 94.5564 44.541C95.8284 45.707 97.6657 46.29 100.068 46.29C102.365 46.29 104.167 45.7247 105.474 44.594C106.817 43.428 107.488 41.944 107.488 40.142C107.488 38.7287 107.1 37.5803 106.322 36.697C105.545 35.8137 104.573 35.1423 103.407 34.683C102.241 34.2237 100.669 33.729 98.6904 33.199C96.2524 32.563 94.2914 31.927 92.8074 31.291C91.3587 30.655 90.1044 29.6657 89.0444 28.323C88.0197 26.945 87.5074 25.1077 87.5074 22.811C87.5074 20.797 88.0197 19.0127 89.0444 17.458C90.0691 15.9033 91.5001 14.702 93.3374 13.854C95.2101 13.006 97.3477 12.582 99.7504 12.582C103.213 12.582 106.04 13.4477 108.23 15.179C110.456 16.9103 111.711 19.207 111.993 22.069H106.693C106.517 20.6557 105.775 19.419 104.467 18.359C103.16 17.2637 101.429 16.716 99.2734 16.716C97.2594 16.716 95.6164 17.246 94.3444 18.306C93.0724 19.3307 92.4364 20.7793 92.4364 22.652C92.4364 23.9947 92.8074 25.09 93.5494 25.938C94.3267 26.786 95.2631 27.4397 96.3584 27.899C97.4891 28.323 99.0614 28.8177 101.075 29.383C103.513 30.0543 105.474 30.7257 106.958 31.397C108.442 32.033 109.714 33.04 110.774 34.418C111.834 35.7607 112.364 37.598 112.364 39.93C112.364 41.732 111.887 43.428 110.933 45.018C109.979 46.608 108.566 47.8977 106.693 48.887C104.821 49.8763 102.612 50.371 100.068 50.371ZM117.66 35.372C117.66 32.404 118.261 29.807 119.462 27.581C120.663 25.3197 122.306 23.5707 124.391 22.334C126.511 21.0973 128.878 20.479 131.493 20.479C134.002 20.479 136.192 21.0443 138.065 22.175C139.973 23.2703 141.369 24.6307 142.252 26.256V20.956H147.128V63.78H142.252V44.647C141.333 46.2723 139.92 47.6503 138.012 48.781C136.104 49.9117 133.878 50.477 131.334 50.477C128.79 50.477 126.476 49.841 124.391 48.569C122.306 47.297 120.663 45.5127 119.462 43.216C118.261 40.9193 117.66 38.3047 117.66 35.372ZM142.252 35.425C142.252 33.2343 141.81 31.3263 140.927 29.701C140.044 28.0757 138.842 26.839 137.323 25.991C135.839 25.1077 134.196 24.666 132.394 24.666C130.592 24.666 128.949 25.09 127.465 25.938C125.981 26.786 124.797 28.0227 123.914 29.648C123.031 31.2733 122.589 33.1813 122.589 35.372C122.589 37.598 123.031 39.5413 123.914 41.202C124.797 42.8273 125.981 44.0817 127.465 44.965C128.949 45.813 130.592 46.237 132.394 46.237C134.196 46.237 135.839 45.813 137.323 44.965C138.842 44.0817 140.044 42.8273 140.927 41.202C141.81 39.5413 142.252 37.6157 142.252 35.425ZM160.101 10.78V50H155.278V10.78H160.101Z" fill="#FF857A"/>
</g>
<defs>
<clipPath id="clip0_50:42">
<rect width="177" height="241" fill="white"/>
</clipPath>
</defs>
</svg>
