<svg width="177" height="241" viewBox="0 0 177 241" fill="none" xmlns="http://www.w3.org/2000/svg">
<g id="spring3" clip-path="url(#clip0_50:42)">
<g id="htmlshield">
<path id="shieldbg" d="M89.8477 68H172V207.202L89.8311 235.713L5.8985 207.178V68H89.8477Z" fill="#FF857A" stroke="#FA6A5D" stroke-width="10" stroke-linejoin="round"/>
<path id="shieldleft" d="M84.3477 75.7072V233.346L5.5 206.807V68.9886L84.3477 75.7072Z" fill="#FA6A5D" stroke="#FA6A5D" stroke-width="11" stroke-linejoin="round"/>
<path id="v5" d="M124.485 101.881H64.8152V140.641C67.4219 137.014 71.2752 134.068 76.3752 131.801C81.4752 129.421 86.9719 128.231 92.8652 128.231C102.272 128.231 109.922 130.214 115.815 134.181C121.709 138.034 125.902 143.078 128.395 149.311C131.002 155.431 132.305 161.948 132.305 168.861C132.305 177.021 130.775 184.331 127.715 190.791C124.655 197.251 119.952 202.351 113.605 206.091C107.372 209.831 99.6086 211.701 90.3152 211.701C78.4152 211.701 68.7819 208.641 61.4152 202.521C54.0486 196.401 49.5719 188.241 47.9852 178.041H63.1152C64.5886 184.501 67.7052 189.544 72.4652 193.171C77.2252 196.798 83.2319 198.611 90.4852 198.611C99.4386 198.611 106.182 195.948 110.715 190.621C115.249 185.181 117.515 178.041 117.515 169.201C117.515 160.361 115.249 153.561 110.715 148.801C106.182 143.928 99.4952 141.491 90.6552 141.491C84.6486 141.491 79.3786 142.964 74.8452 145.911C70.4252 148.744 67.1952 152.654 65.1552 157.641H50.5352V88.2808H124.485V101.881Z" fill="white"/>
</g>
<path id="spring" d="M17.5665 50.371C15.1285 50.371 12.9378 49.947 10.9945 49.099C9.08646 48.2157 7.58479 47.0143 6.48946 45.495C5.39413 43.9403 4.82879 42.156 4.79346 40.142H9.93446C10.1111 41.8733 10.8178 43.3397 12.0545 44.541C13.3265 45.707 15.1638 46.29 17.5665 46.29C19.8631 46.29 21.6651 45.7247 22.9725 44.594C24.3151 43.428 24.9865 41.944 24.9865 40.142C24.9865 38.7287 24.5978 37.5803 23.8205 36.697C23.0431 35.8137 22.0715 35.1423 20.9055 34.683C19.7395 34.2237 18.1671 33.729 16.1885 33.199C13.7505 32.563 11.7895 31.927 10.3055 31.291C8.85679 30.655 7.60246 29.6657 6.54246 28.323C5.51779 26.945 5.00546 25.1077 5.00546 22.811C5.00546 20.797 5.51779 19.0127 6.54246 17.458C7.56713 15.9033 8.99813 14.702 10.8355 13.854C12.7081 13.006 14.8458 12.582 17.2485 12.582C20.7111 12.582 23.5378 13.4477 25.7285 15.179C27.9545 16.9103 29.2088 19.207 29.4915 22.069H24.1915C24.0148 20.6557 23.2728 19.419 21.9655 18.359C20.6581 17.2637 18.9268 16.716 16.7715 16.716C14.7575 16.716 13.1145 17.246 11.8425 18.306C10.5705 19.3307 9.93446 20.7793 9.93446 22.652C9.93446 23.9947 10.3055 25.09 11.0475 25.938C11.8248 26.786 12.7611 27.4397 13.8565 27.899C14.9871 28.323 16.5595 28.8177 18.5735 29.383C21.0115 30.0543 22.9725 30.7257 24.4565 31.397C25.9405 32.033 27.2125 33.04 28.2725 34.418C29.3325 35.7607 29.8625 37.598 29.8625 39.93C29.8625 41.732 29.3855 43.428 28.4315 45.018C27.4775 46.608 26.0641 47.8977 24.1915 48.887C22.3188 49.8763 20.1105 50.371 17.5665 50.371ZM41.7829 26.309C42.7369 24.6483 44.1502 23.2703 46.0229 22.175C47.9309 21.0443 50.1392 20.479 52.6479 20.479C55.2272 20.479 57.5592 21.0973 59.6439 22.334C61.7639 23.5707 63.4246 25.3197 64.6259 27.581C65.8272 29.807 66.4279 32.404 66.4279 35.372C66.4279 38.3047 65.8272 40.9193 64.6259 43.216C63.4246 45.5127 61.7639 47.297 59.6439 48.569C57.5592 49.841 55.2272 50.477 52.6479 50.477C50.1746 50.477 47.9839 49.9293 46.0759 48.834C44.2032 47.7033 42.7722 46.3077 41.7829 44.647V63.78H36.9599V20.956H41.7829V26.309ZM61.4989 35.372C61.4989 33.1813 61.0572 31.2733 60.1739 29.648C59.2906 28.0227 58.0892 26.786 56.5699 25.938C55.0859 25.09 53.4429 24.666 51.6409 24.666C49.8742 24.666 48.2312 25.1077 46.7119 25.991C45.2279 26.839 44.0266 28.0933 43.1079 29.754C42.2246 31.3793 41.7829 33.2697 41.7829 35.425C41.7829 37.6157 42.2246 39.5413 43.1079 41.202C44.0266 42.8273 45.2279 44.0817 46.7119 44.965C48.2312 45.813 49.8742 46.237 51.6409 46.237C53.4429 46.237 55.0859 45.813 56.5699 44.965C58.0892 44.0817 59.2906 42.8273 60.1739 41.202C61.0572 39.5413 61.4989 37.598 61.4989 35.372ZM77.5993 25.673C78.4473 24.0123 79.6486 22.7227 81.2033 21.804C82.7933 20.8853 84.719 20.426 86.9803 20.426V25.408H85.7083C80.3023 25.408 77.5993 28.3407 77.5993 34.206V50H72.7763V20.956H77.5993V25.673ZM95.0388 16.239C94.1201 16.239 93.3428 15.921 92.7068 15.285C92.0708 14.649 91.7528 13.8717 91.7528 12.953C91.7528 12.0343 92.0708 11.257 92.7068 10.621C93.3428 9.985 94.1201 9.667 95.0388 9.667C95.9221 9.667 96.6641 9.985 97.2648 10.621C97.9008 11.257 98.2188 12.0343 98.2188 12.953C98.2188 13.8717 97.9008 14.649 97.2648 15.285C96.6641 15.921 95.9221 16.239 95.0388 16.239ZM97.3708 20.956V50H92.5478V20.956H97.3708ZM119.742 20.426C123.275 20.426 126.137 21.5037 128.328 23.659C130.518 25.779 131.614 28.853 131.614 32.881V50H126.844V33.57C126.844 30.6727 126.119 28.4643 124.671 26.945C123.222 25.3903 121.243 24.613 118.735 24.613C116.191 24.613 114.159 25.408 112.64 26.998C111.156 28.588 110.414 30.9023 110.414 33.941V50H105.591V20.956H110.414V25.09C111.368 23.606 112.657 22.4577 114.283 21.645C115.943 20.8323 117.763 20.426 119.742 20.426ZM151.47 20.479C153.979 20.479 156.169 21.0267 158.042 22.122C159.95 23.2173 161.363 24.5953 162.282 26.256V20.956H167.158V50.636C167.158 53.286 166.593 55.6357 165.462 57.685C164.331 59.7697 162.706 61.395 160.586 62.561C158.501 63.727 156.063 64.31 153.272 64.31C149.456 64.31 146.276 63.409 143.732 61.607C141.188 59.805 139.686 57.3493 139.227 54.24H143.997C144.527 56.0067 145.622 57.42 147.283 58.48C148.944 59.5753 150.94 60.123 153.272 60.123C155.922 60.123 158.077 59.2927 159.738 57.632C161.434 55.9713 162.282 53.6393 162.282 50.636V44.541C161.328 46.237 159.915 47.6503 158.042 48.781C156.169 49.9117 153.979 50.477 151.47 50.477C148.891 50.477 146.541 49.841 144.421 48.569C142.336 47.297 140.693 45.5127 139.492 43.216C138.291 40.9193 137.69 38.3047 137.69 35.372C137.69 32.404 138.291 29.807 139.492 27.581C140.693 25.3197 142.336 23.5707 144.421 22.334C146.541 21.0973 148.891 20.479 151.47 20.479ZM162.282 35.425C162.282 33.2343 161.84 31.3263 160.957 29.701C160.074 28.0757 158.872 26.839 157.353 25.991C155.869 25.1077 154.226 24.666 152.424 24.666C150.622 24.666 148.979 25.09 147.495 25.938C146.011 26.786 144.827 28.0227 143.944 29.648C143.061 31.2733 142.619 33.1813 142.619 35.372C142.619 37.598 143.061 39.5413 143.944 41.202C144.827 42.8273 146.011 44.0817 147.495 44.965C148.979 45.813 150.622 46.237 152.424 46.237C154.226 46.237 155.869 45.813 157.353 44.965C158.872 44.0817 160.074 42.8273 160.957 41.202C161.84 39.5413 162.282 37.6157 162.282 35.425Z" fill="#FF857A"/>
</g>
<defs>
<clipPath id="clip0_50:42">
<rect width="177" height="241" fill="white"/>
</clipPath>
</defs>
</svg>
